<?xml version="1.0" encoding="UTF-8"?>
<svg id="Capa_1" xmlns="http://www.w3.org/2000/svg" version="1.1" viewBox="0 0 560.24 365">
  <!-- Generator: Adobe Illustrator 30.5.1, SVG Export Plug-In . SVG Version: 2.1.4 Build 3)  -->
  <defs>
    <style>
      .st0 {
        fill: #a95535;
      }
    </style>
  </defs>
  <path class="st0" d="M560.15,198.81c-.54-2.17-2.21-2.09-3.53-2.11-3.23-.07-6.48-.24-9.71-.37,0,0,0,0,0,0l-2.9-.21-7.43-.12-1.93.06h0c-1.95-2.3-2.56,2.02-4.41.19-.1-.03-.19-.03-.28-.02l.22-1.47h0c4.91-2.06,9.77-4.25,14.65-6.39l-.33-1.42.33,1.42c1.04-.63,1.9-1.34.09-3.22l-.14-.56c0-3.07,4.41-2.55,2.14-6.89-1.09-2.09-3.75-3.8-5.46-1.69h-.64c-.86-5.33-2.38-3.56-4.43-3.05-3.35.82-7.47-2.52-10.71-.56l-1.12.62.25,3.22-.25-3.22-4.44.38,1.07,2.5,3.65.7h0c1.19,1.49,2.31,1.17,3.43.91-1.12.26-2.24.59-3.43-.91l-3.65-.7-1.77,1.09,1.77-1.09-1.07-2.5h-1.03c-3.28-2.38-4.56,2.85-7.57,1.48h0s-1.24.48-1.24.48l-2.26.66-.64.16c-3.99.02-8.3-1.02-11.87.26-3.81,1.39-7.94,1.42-12.01,1.61-4.07.2-8.09.56-11.73,2.57l.26,1.08,1.63,5.19.82,1.06-.82-1.06h0l-1.63-5.19-.26-1.08-.63-.84-1.71-1.33,1.71,1.33c1.45-2.54,2.78-5.25,4.42-7.45.29-.39,1.89,1.32,2.89,2.06-.49-2.32-.83-4.7-1.55-6.92-.26-.8-1.53-1.78-2.16-1.75-2.33.14-4.58.66-6.86,1.04.54.7,1.08,1.4,1.55,2.12-.47-.72-1.01-1.42-1.55-2.12l-3.1.89c-3.64.98-8.12-.53-9.97,5.59-.31,1.03-2.33,1.67-2.88,1.01-1.16-1.4.79-1,.73-2.07-.02-.3-.15-.86-.24-.9-.54-.23-1.13-.53-1.63-.45-1.11.19-2.14.82-3.27.83-5.09.08-10.2,0-15.29,0-2.24-1.1-3.74.01-4.86,2.35l-1.85.57.56.79-.56-.79-3.05,3.28-1.29.09-.3-1.07-1.01-1.92c-1.29-1.31-2.72-2.48-3.74-.96-1.97,2.95-4.89,2.01-7.44,2.58l-.94-2.41-.68.44-.76,1.23h0s.76-1.23.76-1.23c-2.28.45-4.86-.09-6.41,2.84l-.12.02-.04-.19c-1.13,1.23-1.37-3.65-2.6-1.64h0s-.9.67-.9.67h0l-1.05,1.27c-.3-1.53-3.7-.45-1.69-3.94v-.33s.25-.06.25-.06l.87.28.5-.09c1.27-.35,2.53-.71,3.79-1.09l1.15.42,8.86-1.99-.95-2.94h0l.95,2.94,2.61-.77c3.84-.31,6.64-3.83,10.77-3.53,2.75.21,5.24-1.48,7.83-2.33l2.22.04,2.81-1.39c1.65-.18,3.32-.32,4.96-.53l4.04-2.25c1.95-.03,3.59-.97,5.2-1.91.69-.19,1.38-.38,2.06-.58,1.4-.41,2.73-1.02,4.05-1.69,3.43-.74,6.82-1.51,9.72-3.73l1.21-.63c.75-.05,1.52-.04,2.32.07h0c5.56.26,10.3-2.49,15.33-4.16l4.23-3.16c4.83,2.21,6.95-4.01,11.04-4.07h0l10.25-2.92h0c1.78-2.55,6.16-2.36,3.36-9.67.88-1.8,2.62-5.21.65-6.22-2.57-1.32-5.45-2.47-8.03-2.03,0-.01.01-.03.02-.04.64-1.52,3.38-3.69,1.48-4.54-2.61-1.17-6.08-1.38-8.16.99-3.65-3.44-6.2-.95-7.64.72-.68.8-1.78,1.4-3.08,1.76-1.28.33-2.79.45-4.3.29-1.5-.17-3.03-.58-4.39-1.26-1.36-.69-2.56-1.62-3.46-2.8,1.78-1.33,3.58-2.71,5.38-4.09-1.21-1.16-2.39-2.36-3.57-3.54,1.18,1.18,2.36,2.38,3.57,3.54l.93-.81c2.09,1.03,3.39-.03,4.67-1.22,1.28-1.17,2.55-2.53,4.78-2.13,2.93.47,5.47-2.93,7.85-5.15,1.34-1.23.72-2.76-.13-4.34-.85-1.58-1.92-3.21-1.6-4.64-.57-.32-1.54-1.06-1.64-.9-1.19,1.84-3.03,2.56-4.96,2.94-1.93.42-3.94.5-5.62,1.3,0,0,0,0,0,0-1.55.19-3.08.4-4.61.54-2.21.84-4.41,1.63-6.6,2.38-.73.02-1.46,0-2.17.07-.62.05-1.19.27-1.82.25-.55-.02-1.84.79-1.07-1.42l.27-.2.92-1.28,3.81-1.96c2.22-1.78,4.41-3.57,6.53-5.44l.52-.59-.53-1.12c1.71.49,1.98-.86,1.73-2.76.59-.88.77-2.36,1.23-3.38.46-1.02,1.23-1.52,3.06-.56-.26-.88-.57-2.41-.8-2.52-2.44-1.24-4.87-2.77-6.51-1.25l-.99.84,2.09,1.52.21,1.08-.21-1.08-2.09-1.52-.83.53c-3.17-4.6-3.75-.15-5.77-.61-1.97-.6-3.96-1.25-5.9-1.9l-.75-1.22c1.26.44,2.21-.1,1.91-1.85-.35-2.03-1.59-1.7-2.51-2.32-3-2.03-4.88-.7-6.94.42l-4.36-2.6.59-1.66h0s.62-.79.62-.79v-.02s.41-.61.41-.61c3.04.17,4.87-2.23,6.65-4.24,3.98-1.21,5.37-6.24,7.26-9.31.41-.62-.14-2.54-.3-3.85-.74-.14-1.49-.26-2.29-.45-.87-.2-1.55-.29-.81,1.93.15.44-.11.78-.19,1.17-.42-.54-.97-1.05-1.24-1.64-1.88-4.01-2.47-3.14-3.11-1.72-1.85-1.57-3.4-1.67-4.99-1.91-.82-.12-1.64-.29-2.49-.7-.88-.41-1.81-1.08-2.8-2.21-1.43-1.43-2.44-2-3.15-2.01-.71,0-1.09.56-1.38,1.43-.57,1.73-.51,4.64-1.15,6.47-1.06,2.01-2.25,4.01-3.42,6.02,1.17-2.01,2.36-4.01,3.42-6.02-2.76-2.79-3.04,1.86-5.07,1.39l-4.03-.14-.44,1.24c0,.12-.01.24-.02.36-3.89,1.05-7.59,2.37-9.11,8.26.21-.08.43-.13.64-.17-.21.04-.42.09-.64.17l-.46.62c-1.96.77-2.26-1.76-2.7-3.98-1.44.87-1.81,3.61-3.85,3.19-3.47-.69-7.37-2.71-8.91,2.86-.13.48-.85.84-1.14.56-3.91-3.9-5.31-1.82-6.18,3.1-.57,3.22-3.18,2.96-5.01,1.33-1.77-1.58.33-2.57.33-4.08,0-.59-.2-1.79-.29-1.84-.54-.25-1.26-.62-1.57-.26-1.6,1.79-2.94,4.54-5.85.92-.17-.21-.54-.14-.72.02-2.47,2.25-4.74,5.21-7.53,6.66-2.8,1.49-5.91,3.36-9.54-.99-.64-.77-1.08-2.71-1.92-2.17-.59.39-1,1.49-1.3,2.49-1.06,3.54-.98,9.54-5.39,6.12l-1.18-1.56c-1.3-1.99-1.82-1.39-1.84.91l-.45.06c-1.79-1.75-2.2,1.87-3.69,1.28l-.63-.1c-1.04-.26-2.09-.37-3.13-.79-1.78-.72-3.08,1.43-4.52,2.78-1.44,1.34-3.03,1.9-5.27-1.96l-.7,1.39c-1.3,2.46-3.53-.52-5.04.69-1.69.81-3.19,2.68-5.34.92-3.03-2.49-5.71-2.63-7.98.61h0l-1.55,1.19-7.49.68c-1.95.25-3.9.47-5.86.66l-1.21.12,7.69-3.37-.22-1.44.22,1.44c.61-.44,1.12-.98,0-3.12l-.09-.57c-.05-2.99,2.61-1.74,1.19-6.34-.68-2.22-2.31-4.34-3.31-2.57l-.39-.12c-.59-5.32-1.49-3.85-2.72-3.7-2.01.24-4.58-3.74-6.5-2.31l-.66.43.2,2.96-.2-2.96-2.68-.32.7,2.6,2.23,1.25h0c.09.2.18.38.27.53-.09-.15-.18-.33-.27-.53l-2.23-1.25-1.05.79,1.05-.79-.7-2.61-.62-.17c-2.04-2.82-2.7,2.08-4.56.27h0s-.74.27-.74.27l-1.35.31-.38.06c-2.42-.55-5.07-2.19-7.2-1.44-4.55,1.59-10.01-2.05-14.28.94l.21,1.09,1.21,5.29.67,1.41c.06.03.12.02.17-.02l.18-2.13v-.05c-.15-2,.19-2.08.62-1.76.06.05.13.1.19.16-.07-.06-.13-.11-.19-.16-.44-.32-.77-.25-.62,1.76v.05s-.18,2.13-.18,2.13c-.05.05-.1.06-.17.02l-.67-1.41-1.21-5.29-.21-1.09-.42-.91-1.1-1.5,1.1,1.5c.77-2.3,1.48-4.78,2.39-6.72.16-.35,1.21,1.54,1.85,2.39-.39-2.33-.69-4.71-1.21-6.98-.19-.82-1.01-1.94-1.39-1.99-1.42-.17-2.79.06-4.17.14.18.38.36.76.54,1.14-.17-.38-.36-.76-.54-1.14l-1.86.52c-2.18.54-5.01-1.46-5.85,4.33-.14.98-1.35,1.37-1.72.65-.78-1.51.43-.88.35-1.95-.02-.29-.13-.86-.19-.91-.35-.29-.72-.65-1.02-.63-.67.06-1.27.57-1.96.47-3.11-.45-6.25-1.04-9.38-1.58-1.44-1.32-2.3-.35-2.84,1.86l-1.1.39.66,1.39c.12.05.25.11.38.18-.13-.07-.25-.13-.38-.18l-.66-1.39-1.66,2.96h0s-.78-.02-.78-.02l-.25-1.08.4-1.26-1.14-.72c-.87-1.4-1.83-2.68-2.36-1.28-1.02,2.72-2.87,1.54-4.39,1.91l-.74-2.45-.38.39-.38,1.15h0s.38-1.15.38-1.15c-1.37.27-2.99-.46-3.73,2.3h-.07s-.04-.18-.04-.18c-.6,1.12-1.1-3.7-1.72-1.82h0s-.5.59-.5.59l-.55,1.17-1.07.9h0s-1.96.11-1.96.11c-.14.42-.25.97-.41,1.34.16-.37.27-.92.41-1.34l1.96-.11,1.07-.9c-.3-1.54-2.31-.72-1.33-4.01l-3.9.08h0s3.9-.08,3.9-.08l-.05-1.08,1.01-.91h.42l6.87-2.69.84.23-1.02-1.25h0s-.57-2.07-.57-2.07l.57,2.07,1.02,1.25,1.06-.87h0l.92-.5.19-1.09-.19,1.09,3.98.1,4.18-1.27-.81-5.17-1.15-3.03,1.15,3.03.81,5.17,2.63-.86c-.19-.88-.33-1.68-.38-2.36.05.67.19,1.48.38,2.36,4.31-.87,8.67-1.48,12.91-2.67,3.55-1,6.31-5.55,10.47-3.81h0c3.46.98,6.29-1.16,9.37-2.09l2.54-2.5c3.06,2.84,4.21-2.96,6.77-2.42-.04-.16-.07-.33-.11-.49.03.17.07.33.11.49l6.33-1.28-.09-5.34.09,5.34c1.07-2.21,3.79-1.36,1.96-8.93.52-1.64,1.59-4.65.34-5.96-2.13-2.23-4.6-4.2-6.5-2.69l-2.49.6c-1.69-3.35-10.61-5.54-12.19-2.99l-.27.02-.05-.13v.13s-.04,0-.04,0c-.07-.1-.14-.15-.21-.15l-1.9-.54-.51.72-.52.04-.18,2.52c-.08.96-.46,1.22-.82,1.54.36-.32.74-.58.82-1.54l.18-2.52c-.38.21-.73.78-1.15.57-1.42-.72-1.69,3.6-2.64,2.57-1.56-1.69-2.96-4.1-4-1.67-1.78-2.9-2.24.89-3.5.66-.66-1.47-.84-.23-1.19.05l-.47-.45h0c-2.35-1.91-4.16-.78-5.97.33l-.35.16-.58.07c-1.11-.39-1.33,1.31-1.38,3.42.15.47.27.89.35,1.25-.08-.36-.2-.78-.35-1.25l-.33,1.21.08,1.53h0s-.06.01-.09.02c.03,0,.06-.02.09-.02l-.08-1.53c-2.2-2.26-3.98-.51-6.33-3.04-.94-1.01-1.71,3.51-3.7-.95-.73-1.63-1.4-.15-2.03.51-.99,1.05-2.1,2.88-3.27,1.99-4.98-3.84-8.14,3.75-13.29-1.58h-.38c-.39.02-.92-.34-1.15.09-2.69,5.12-7.73.79-10.38,6.09-.29.59-1.2.61-1.53-.09-2.87-5.99-4.78-2.53-7.11-3.41-3.92-1.48-7.41-.38-10.98.2-2.37.38-4.62,1.42-6.92,2.17l1.11.54-1.11-.54c-.06.03-.11.06-.17.07-.59-.3-1.26-.97-1.76-.85-3.03.73-5.99,1.74-9.02,2.45-2.59.61-5.23.93-7.85,1.38l-4.74.25-.79,1.13h0s.23,1.09.23,1.09h0s-.23-1.08-.23-1.08c-2.11,3.34-5.48-1.08-8.12.49-3.77,2.25-8.31,1.87-12.44,3.31-2.18.77-4.98-1.59-6.73,1.28.01.16.04.32.08.47l-2.83.11c-2.8-.38-4.39,4.5-7.75,1.91l-2.52.55c-.11.97-.46,1.53-.83,2.06.36-.54.72-1.09.83-2.06l-.9-.14-.57,1.21-.45.74c-2.08-2.26-3.41-.53-5-.22l-2.99,1.52c-1.24.34-.71,6.71-3.5,1.53-1.97-3.65-2.67-.95-3.3.12-.63,1.06.87.83,1.08,1.99.09.49.31,1.27.24,1.4-.22.37-.52.73-.87.65-2.95-.65-5.95-1.38-9-2.04l-.51.47c-1.65.48-3.29.92-4.96,1.43.5,0,.99,0,1.48,0-.49,0-.98.01-1.48,0l-1.09.31.14.56c.2,1.03.4,1.87.6,2.55-.2-.68-.4-1.52-.6-2.55l-.14-.56-1.23.06-.46.1-2.2.09-.46.13c-.6,1.56-1.91,1.02-2.95,1.32-1.5.43-2.98.98-4.45,1.59l-4.41,1.83-.47.19-.67-.24-.34.1-2.51,1.16-.91-.38-6.07,2.22,2.24,4.82,1.97-.25v-.55s1.97-1.1,1.97-1.1l-1.95,1.1v.55s-1.99.25-1.99.25l-2.24-4.82-1.76.87c-2.79.42-4.11,3.92-7.26,3.87-2.1-.06-3.61,1.68-5.38,2.66l-1.7.09-1.81,1.51-3.68.87c-.86.8-1.71,1.59-2.56,2.43-2.69.34-3.82,3.31-6.04,4.29-1.51.65-3.07,1.19-4.5,1.97-1.43.79-2.74,1.79-3.73,3.27-1.28,1.15-2.53,2.4-3.78,3.6-1.25,1.2-2.49,2.42-3.7,3.68l-1.57,2.03,1.79.09-1.79-.09-.32.39h0c-1.3,1.48-2.67,2.94-3.76,4.63-1.39,2.14-2.1,5.01-3.75,6.77-1.08,1.13-3.12,1.23-1.8,4.43.15,2.56.29,5.04.62,7.6.17,1.33-.89,3.09.79,3.84,2.29,1.02,4.8,1.17,5.31-.9,3.94,2.88,4.71.59,5.05-.94.33-1.47,2.14-2.32,4.39-2.29,2.26.04,4.98,1.01,7.15,2.96-.75,1.36-1.51,2.67-2.2,4.06l3.89,2.85-3.89-2.85-.33.78c-1.87-.75-2.36.25-2.78,1.35-.44,1.08-.76,2.33-2.48,2.07-2.24-.31-2.67,2.64-3.48,4.49-.92,2.05,4.11,5.18,4.72,7.56.53.28,1.52.92,1.53.79.14-1.55,1.17-2.15,2.37-2.52,1.22-.36,2.59-.5,3.44-1.25h0c1-.24,1.98-.48,2.99-.68l3.61-2.48c.5-.06,1.01-.09,1.48-.19.41-.08.72-.32,1.16-.34.39-.02.95-.82,1.29,1.19l-.11.19-.12,1.19c-.62.65-1.24,1.29-1.83,1.96-.76,1.63-1.52,3.2-2.21,4.82-3.3,1.72-2.36,4.36.83,7.75-.2.35-.72.4-1.86-.14.52.74,1.32,2.01,1.54,2.13-.29.78-.17,1.96-.81,2.44l-1.93-1.26c-4.23-3.6-6.57-3.63-8.16-2.31-1.59,1.33-2.3,4.03-3.51,5.91l-.2.45s0,0,0,0c-2.07-.93-2.91.41-4.1,1.1l-.19,1.12c-1.35,2.95-5.96,3.3-4.5,8.44-1.15-1.17-1.67-1.07-1.95.08-.59,2.43-1.39,4.7-1.84,7.16-.24,1.35-2.11,2.9.31,4.37,2.37,1.44,2.76-1.13,3.37-2.66,2.08,1.16,2.91.29,3.69-.68.78-.97,1.55-2.03,3.37-1.26h.01s2.1.17,2.1.17l.57-.32,2.39-.46c-.17-1.5-.33-3-.48-4.5.15,1.5.31,3,.48,4.5l.67.86,2.97-1.46-2.97,1.46c.47.73.83,1.4,1.11,2-.27-.61-.63-1.27-1.11-2l-.67-.86-2.39.46c1.65,3.75-2.48,2.66-2.73,4.8l-1.36.54-1.58,1.33c-.1.06-.18.14-.24.24l-2.29,2.57c-1.87,1.56-3.68,3.15-5.49,4.74-1.8,1.59-3.63,3.18-5.37,4.8-.78.73-2.32,1.52-.96,3.09,1.48,1.72,2.94.95,4.13.42,2.91-1.31,5.95-2.49,8.9-3.72h0s2.7-1.01,2.7-1.01l6.84-2.88,1.72-.84s0,0,0,0c2.74,1.3,1.48-2.87,3.95-1.94.1-.01.19-.05.26-.09l1.57-.11-1.57.11.42,1.43c-1.83,1.91-3.56,3.87-5.31,5.81-1.74,1.94-3.5,3.88-5.17,5.85l.94,1.15-.94-1.15c-.64.99-1.09,1.98,1.37,2.95l.38.45c1.39,2.76-2.76,4.08,1.22,7.05,1.93,1.43,5.05,1.91,5.6-.67l.57-.24c3.17,4.44,3.69,2.24,5.28.98,2.62-2.03,7.76-.56,9.74-3.58l.72-.98-1.44-2.51,1.44,2.51,3.78-1.99-2.02-1.88-3.56.74h0c-1.28-.68-2.09-.45-2.79,0-.23.15-.45.32-.67.49-.18.14-.37.28-.56.4.19-.12.38-.26.56-.4.22-.17.44-.34.67-.49.7-.44,1.51-.67,2.79,0l3.56-.74,2.02,1.88.92-.37c3.89.94,2.87-4.26,6.15-4.07h0s.92-.87.92-.87l1.75-1.41.51-.38c3.59-1.41,7.87-1.9,10.59-4.26,1.48-1.23,3.15-2.19,4.9-3.02.87-.42,1.77-.8,2.66-1.18.91-.36,1.83-.69,2.74-1.04,1.82-.69,3.61-1.42,5.27-2.34,1.65-.93,3.25-1.95,4.6-3.4l-.59-.95-3.18-4.48-1.02-.71,1.02.71.15-.84-.15.84,3.18,4.48.59.95.85.63,1.98.8-1.98-.8c-.51,2.8-.85,5.65-1.55,8.18-.12.45-2.15-.71-3.31-1.12,1.25,2.04,2.39,4.18,3.81,6.06.51.68,1.98,1.25,2.52,1.04,1.98-.8,3.83-1.77,5.72-2.7l2.43-1.63c1.42-.96,3.3-1.22,4.73-2.12,1.45-.88,2.49-2.33,2.44-5.48-.01-1.06,1.65-2.05,2.33-1.52,1.43,1.12-.44,1.1-.09,2.12.1.28.38.8.47.81.55.12,1.16.29,1.58.12.94-.39,1.68-1.19,2.68-1.43,1.13-.26,2.24-.55,3.37-.76l3.4-.6c2.27-.37,4.49-.83,6.76-1.07,2.22.82,3.27-.46,3.82-2.9l1.52-.8-1.08-1.18,1.08,1.18c.7-1.18,1.43-2.33,2.17-3.5l1.14-.21.44,1.03,1.2,1.8c1.34,1.17,2.76,2.21,3.42.62,1.32-3.05,4.07-2.2,6.22-2.93l1.07,2.35.54-.48.54-1.26h0s-.54,1.26-.54,1.26c.96-.3,2.02-.3,2.98-.59.96-.3,1.81-.91,2.39-2.37l.1-.02.04.19c.92-1.23,1.41,3.59,2.37,1.61h0s.76-.65.76-.65l.87-1.25,1.62-1.03h0s-1.62,1.03-1.62,1.03c.34,1.53,3.26.5,1.64,3.94v1.09s-1.46,1.02-1.46,1.02l-.58.04c-3.21,1.21-6.38,2.39-9.44,3.81l.27,1.01.28.67h0s-.28-.67-.28-.67l-1.41-1.07-1.41,1.09h0s-1.22.68-1.22.68c-1.79.28-3.58.63-5.38.93l-.07.03c-.63.11-1.25.21-1.89.32l-2.88.69c-2.08.05-3.97.95-5.89,1.8-1.92.84-3.86,1.58-6.12,1.4-3.01-.21-5.88,1.38-8.81,2.22l-2.47-.04-3.22,1.4c-1.85.15-3.72.38-5.59.59l-4.68,2.29c-1.96.07-3.69.88-5.36,1.76-1.67.88-3.28,1.83-5.07,2.28-2.42.59-4.85,1.06-7.2,1.78-2.36.76-4.64,1.74-6.7,3.25-4.64,2.41-9.25,4.85-13.81,7.5l-3.15,2.14-.63.42c.18.17.32.34.44.53-.12-.18-.26-.36-.44-.53-2.5,1.65-5.08,3.15-7.42,4.99-2.95,2.44-5.39,5.53-8.5,7.54-2.02,1.31-4.81,1.38-4.7,5.01-1.12,2.91-2.23,5.84-3.15,8.79-.48,1.51-2.84,3.58-1.01,4.44,2.52,1.16,5.84,1.34,7.64-1.12,3.77,3.23,6.11.66,7.4-1.11.62-.86,1.66-1.53,2.93-2,1.28-.44,2.8-.65,4.36-.62,3.12.05,6.39,1.09,8.42,3.33-1.81,1.48-3.56,3.09-5.32,4.63h0s-.89.88-.89.88c-2.23-.87-3.44.32-4.63,1.6-1.2,1.29-2.36,2.69-4.61,2.42-2.89-.27-5.13,3.21-7.29,5.4-2.4,2.51,2.69,6.04,2.16,8.88.57.31,1.56,1.03,1.65.87.55-.94,1.25-1.62,2.07-2.1.83-.47,1.75-.77,2.7-1.01,1.91-.48,3.9-.75,5.55-1.65,0,0,0,0,0,0l4.64-.88c2.17-1.06,4.4-2,6.62-2.96.75-.09,1.51-.15,2.24-.28.63-.12,1.21-.4,1.88-.42.58-.03,1.88-.94,1.2,1.33l-.27.22c-.29.45-.59.9-.88,1.36l-3.8,2.34c-2.2,1.93-4.28,4.01-6.37,6.02l-.5.63.61,1.08c-1.79-.37-1.99,1.01-1.64,2.91-1.13,1.89-.44,6.04-4.3,4.26.29.87.65,2.41.88,2.51,2.56,1.11,5.2,2.48,6.89.79l1-.96-2.25-1.35-.27-1.08.27,1.08,2.25,1.35.84-.62c3.53,4.37,3.99-.16,6.09.09,2.09.39,4.2.87,6.28,1.35l.86,1.15c-1.33-.33-2.31.3-1.89,2.03.48,2,1.77,1.57,2.78,2.11,3.27,1.77,5.07.2,7.12-1.04,1.54.75,3.06,1.51,4.56,2.27l-.46,1.7h0s-.56.84-.56.84v.02s-.36.64-.36.64c-3.11.01-4.75,2.66-6.57,4.83-2.07.79-3.43,2.59-4.63,4.53-1.2,1.94-2.09,4.21-3.33,5.96-.5.72-.02,2.65.06,4.05.92,0,1.87.03,2.81.09,1.04.07,1.91.05,1.07-2.17-.17-.44.15-.84.24-1.26.48.5,1.11.94,1.42,1.51,2.1,3.89,2.87,2.87,3.59,1.33,2.17,1.37,3.87,1.25,5.61,1.29,1.78.09,3.58.33,5.77,2.41,3.15,2.57,4.2,1.99,4.58.24.38-1.75.1-4.63.5-6.48.84-2.02,1.74-4.03,2.66-6.07-.92,2.04-1.83,4.04-2.66,6.07,2.86,2.66,2.65-1.93,4.57-1.53,1.22,0,2.46.02,3.71.07l.32-1.23c0-.11,0-.23,0-.36,1.77-.52,3.47-1.15,4.93-2.32,1.45-1.18,2.56-3.02,3.22-5.92-.3.11-.6.18-.89.2.29-.02.59-.09.89-.2l.42-.61c1.87-.74,2.2,1.78,2.67,3.98,1.34-.84,1.64-3.56,3.6-3.13,3.36.74,7.01,2.81,8.59-2.65.14-.47.84-.81,1.12-.52,3.7,3.95,5.12,1.97,6.11-2.93.64-3.22,3.25-2.83,5-1.11,1.69,1.66-.43,2.55-.49,4.05-.03.58.13,1.79.22,1.84.44.24,1,.55,1.36.45-.09.24-.18.47-.26.72-.39,1.18-2.22,2.2-.25,4.16,1.92,1.89,2.56-.37,3.3-1.64,3.35,3.22,3.4-2.4,6.38,0h.01s1.78.72,1.78.72l.53-.14,2.1.22c.09-3.37.24-6.74.45-10.09l.7-.48c-.04-.19-.07-.37-.09-.53h0c.02.17.05.34.09.53l-.7.48c-.21,3.35-.36,6.72-.45,10.09l.47.98c.73,1.88,1.01,3.25.98,4.29.02-1.04-.26-2.41-.98-4.29l-.47-.98-2.1-.22c.97,3.9-2.44,1.78-2.9,3.73l-1.25.15-1.53.82c-.1.03-.17.08-.23.16-.77.6-1.53,1.18-2.29,1.8l-5.36,3.08c-1.78,1.05-3.52,2.17-5.27,3.29-.78.5-2.25.9-1.16,2.66,1.19,1.91,2.56,1.51,3.68,1.3,2.74-.53,5.47-1.03,8.2-1.38-.35-.86-.66-1.7-.88-2.48.22.78.53,1.63.88,2.48l2.47-.25,3.08-.5,3.08-.41,1.56-.31h0c2.21,1.94,1.54-2.28,3.54-.74.08.01.16,0,.23-.01h0l.21,1.43c-3.42,2.57-6.77,5.21-10.03,7.96l.71,1.28-.71-1.28c-.65.74-1.11,1.52.94,3.03l.29.5c.97,2.84-2.65,3.08.58,6.75,1.57,1.79,4.15,2.96,4.78.81l.5-.07c2.38,4.84,2.97,3.02,4.36,2.31,2.28-1.2,6.45,1.66,8.26-.53l.66-.69-.97-2.68.97,2.68,3.23-.7-1.48-2.29-2.97-.36,2.97.36,1.04-1.18-1.04,1.18,1.48,2.29.77-.07c3.06,2,2.67-3.01,5.29-1.88h0s.81-.52.81-.52l1.52-.76.44-.18c2.99-.21,6.39.59,8.77-.71,2.54-1.44,5.6-1.53,8.55-1.79,2.97-.2,5.82-.61,8.2-2.5l-.36-1.05-2-5.07-.95-1.28c-.08-.02-.15,0-.2.06v2.17s.02.05.02.05c.52,2.65-.36,2.01-1.17,1.59.8.43,1.69,1.06,1.16-1.59v-.05s-.02-2.17-.02-2.17c.05-.06.12-.08.2-.06l.95,1.28.2-.74-.2.75,2,5.06.36,1.05.6.83c-.68,2.45-1.21,5.06-2.01,7.2-.14.38-1.59-1.29-2.45-2.01.76,2.25,1.42,4.55,2.33,6.71.33.78,1.4,1.74,1.84,1.7,1.61-.12,3.12-.6,4.68-.91l2.04-.84c2.43-.92,5.78.68,6.28-5.26.09-1,1.46-1.56,1.94-.89,1.01,1.41-.44.95-.26,2,.05.29.22.85.29.89.42.24.88.56,1.22.49.76-.15,1.41-.74,2.21-.73,3.61.07,7.22.3,10.83.55,1.69,1.18,2.64.13,3.21-2.13l1.26-.49h0l1.88-3.12.91-.03.31,1.07-.45,1.3,1.34.64c1.03,1.35,2.14,2.57,2.74,1.12,1.16-2.82,3.32-1.74,5.09-2.21l.85,2.42.45-.41.45-1.18s-.03-.08-.05-.12c.02.04.03.07.05.12l-.45,1.18c1.58-.36,3.46.3,4.37-2.51l.08-.02.04.19c.72-1.16,1.22,3.67,1.97,1.75h0s.6-.62.6-.62l.67-1.21,1.28-.94h0s2.3-.19,2.3-.19c.24-.57.41-1.38.74-1.67-.33.29-.5,1.1-.74,1.67l-2.3.19-1.28.94c.32,1.53,2.68.64,1.47,3.98l4.55-.23h0s-4.55.23-4.55.23l.04,1.08-1.19.96-.48.02c-2.66,1-5.32,2.01-7.93,3.05l.2,1.02.65,2.05-.65-2.05-1.16-1.2-1.22.93-1.04.57-.66,3.62.66-3.62-4.53.16-4.68,1.6h0c-.98.35-1.94.73-2.91,1.1-4.8,1.24-9.57,2.37-14.12,4.09-1.88.75-3.46,2.34-5.11,3.63-1.63,1.31-3.4,2.24-5.71,1.75h0c-3.83-.38-6.47,2.29-9.46,3.84l-2.09,3c-1.88-1.08-2.77-.07-3.53,1.15-.76,1.24-1.37,2.71-2.68,2.78l-2.94,1.42c-.98.47-1.92.99-2.88,1.48l1.69,5.08-1.69-5.08c-.18,1.21-1,1.78-1.24,2.92-.23,1.14.11,2.8,2.19,6.13.06,1.7.17,4.81,1.71,5.72,1.31.78,2.65,1.48,3.79,1.75,1.16.29,2.14.16,2.73-.77.66-.37,1.29-.78,1.98-1.13,1.26,1.43,3.94,2.19,6.43,2.33,1.25.07,2.44-.03,3.36-.32.93-.29,1.63-.74,1.84-1.43l.24-.07.08.12-.03-.13h.03c.09.07.16.11.22.11l-.23-1.08.23,1.08,1.82.21c.1-.26.19-.53.3-.79l.47-.12-.35-2.49c-.11-.89.15-1.22.4-1.56-.26.34-.52.67-.4,1.56l.35,2.49c.31-.26.51-.87.94-.72,1.44.5.85-3.79,1.94-2.92,1.79,1.45,3.51,3.64,4.07,1.1,2.13,2.61,1.98-1.17,3.23-1.09.85,1.38.84.13,1.13-.19l.51.38h0c2.5,1.6,4.12.33,5.75-.97l.32-.19.57-.13c1.14.29,1.18-1.42,1.02-3.53l.22-1.23-.23-1.52s.06-.02.09-.03c-.03.01-.06.02-.09.03l.23,1.52c2.4,2.03,4.1.16,6.67,2.49,1,.93,1.52-3.63,3.84.68.84,1.58,1.44.05,2.05-.65.96-1.11,2.06-3.01,3.31-2.18,2.66,1.76,4.8.75,6.95-.11,2.18-.84,4.42-1.5,7.21,1.09l.41-.03c.42-.02,1,.33,1.25-.12,1.45-2.62,3.58-2.88,5.73-3.14,2.12-.28,4.29-.56,5.85-3.25.35-.6,1.37-.64,1.72.05,3.09,5.97,5.33,2.45,7.99,3.3,4.44,1.43,8.53.27,12.78-.36,2.81-.42,5.55-1.5,8.36-2.28l-1.3-.52,1.3.52c.07-.03.14-.06.21-.07.69.3,1.45.96,2.07.83,1.86-.39,3.7-.86,5.56-1.33,1.87-.47,3.74-.94,5.63-1.33,3.26-.69,6.56-1.09,9.92-1.65l6.06-.46,1.08-1.18h0s-.23-1.09-.23-1.09h0s.23,1.08.23,1.08c2.85-3.46,7.09.74,10.46-.97,4.89-2.46,10.47-2.44,15.59-4.14,2.67-.88,6.03,1.24,8.18-1.75-.01-.16-.04-.32-.09-.47l3.39-.3c3.34.22,5.3-4.83,9.2-2.44l2.95-.71c.19-1.29.85-1.89,1.39-2.65-.54.76-1.2,1.36-1.39,2.65l1.05.09.68-1.26.54-.77c2.38,2.18,3.93.34,5.76-.09l3.43-1.7c1.41-.4.93-6.82,4-1.72,2.17,3.59,2.98.83,3.71-.28.73-1.11-.96-.79-1.19-1.95-.1-.49-.33-1.27-.24-1.4.26-.39.6-.77.99-.71,3.3.51,6.63,1.12,9.97,1.68l.57-.48,5.45-1.61c-.54,0-1.08.02-1.61.05.54-.02,1.07-.04,1.61-.05l1.19-.34-.13-.56c-.14-.78-.29-1.44-.43-2.02.15.57.29,1.24.43,2.02l.13.56,1.34-.09.5-.12,2.38-.14.49-.13c.68-1.58,2.08-1.02,3.2-1.35,3.24-.93,6.35-2.27,9.5-3.44l.5-.18.69.26.36-.1c.9-.36,1.78-.76,2.67-1.13l.93.39,6.36-2.04-2-4.91-2.06.19-.05.55-2.09,1.05,2.09-1.05.05-.55,2.06-.19,2,4.91,1.85-.78c2.86-.27,4.43-3.75,7.6-3.46,2.1.18,3.74-1.41,5.59-2.21l1.69.05,1.92-1.35,3.68-.48,2.75-2.1c2.64.04,4.09-2.8,6.34-3.42,3.06-.83,6.25-1.25,8.57-3.78l8.23-5.6-.17-.74.17.74,1.85-1.61-1.66-.49,1.66.49.37-.3c1.49-1.16,3.05-2.2,4.42-3.57,1.73-1.74,3.06-4.25,5.01-5.47,1.27-.79,3.16-.3,2.78-3.7.53-2.46,1.09-4.87,1.53-7.39.23-1.3,1.77-2.63.43-3.85-1.83-1.67-4.2-2.55-5.31-.69-2.9-3.84-4.38-1.85-5.14-.45-1.5,2.69-7.93,1.41-11.27-3.35l3.39-3.52h0s.57-.68.57-.68c3.35,2.33,3.13-3.41,6.38-2.06,2.12.87,3.52-1.89,5.01-3.42,1.67-1.72-2.18-6.17-1.86-8.66-.43-.42-1.18-1.31-1.25-1.19-1.54,2.97-5.16,1.17-7.5,2.26h0s-3.39,0-3.39,0l-4.72,1.7c-.55-.03-1.11-.09-1.64-.08-.47.01-.87.19-1.36.14-.42-.05-1.3.66-1.01-1.43l.18-.18.54-1.18,2.68-1.64c1.49-1.54,2.99-3.04,4.45-4.61l.06-.08c2.52,2.89,3.9,2.86,5.82.97.92-.9,2.22-1.4,3.45-1.42,4.63-.09,4.36-3.61,1.89-9.21,2,1.39,1.97-1.62,3.21-1.96l1.26,1.87c4.93,9.73,8.03,3.66,11.49,1.14l.34-.34s0,0,0,0c1.47,1.64,2.68.75,3.97.57l.58-.95c2.31-2.15,6.5-.6,7.23-5.84.55,1.52,1.04,1.64,1.74.71,1.49-1.95,3.16-3.65,4.57-5.7.78-1.12,3.08-1.77,1.55-4.09-1.49-2.27-2.92-.09-4.11,1.04-2.72-3.77-4.46,1.75-7.08-1.1h-.01s-1.8-1-1.8-1l-.64.06-2.32-.53-3.21,10.06-.9.39c-.02,2.16-.88,2.83-1.92,3.14,1.03-.32,1.9-.98,1.92-3.14l.9-.39,3.21-10.06-.25-1.05-3.25.15,3.25-.15c-.13-.87-.18-1.63-.18-2.29,0,.67.05,1.42.18,2.29l.25,1.05,2.32.53c.04-4.06,3.29-1.44,4.4-3.27l1.45.07,1.98-.57c.11,0,.22-.05.31-.12l3.14-1.41c4.65-1.35,9.32-2.67,13.95-4.08,1.03-.33,2.78-.39,2.28-2.38Z"/>
</svg>